<svg width="32" height="32" viewBox="0 0 32 32" fill="none" xmlns="http://www.w3.org/2000/svg">
  <!-- Chef's hat -->
  <path d="M16 4C13.5 4 11.5 5.5 11 7.5C10 7 8.5 7 7.5 8.5C6.5 10 7 12 8.5 12.5C8.2 13.5 8 14.5 8 15.5V20C8 21.1 8.9 22 10 22H22C23.1 22 24 21.1 24 20V15.5C24 14.5 23.8 13.5 23.5 12.5C25 12 25.5 10 24.5 8.5C23.5 7 22 7 21 7.5C20.5 5.5 18.5 4 16 4Z" fill="currentColor"/>
  
  <!-- Spoon -->
  <path d="M6 24C6 24.5 6.5 25 7 25H9C9.5 25 10 24.5 10 24V22C10 21.5 9.5 21 9 21H7C6.5 21 6 21.5 6 22V24Z" fill="currentColor"/>
  <path d="M8 21V28C8 28.5 8.5 29 9 29C9.5 29 10 28.5 10 28V21" stroke="currentColor" strokeWidth="1" fill="none"/>
  
  <!-- Fork -->
  <path d="M22 24C22 24.5 22.5 25 23 25H25C25.5 25 26 24.5 26 24V22C26 21.5 25.5 21 25 21H23C22.5 21 22 21.5 22 22V24Z" fill="currentColor"/>
  <path d="M23 21V28M25 21V28" stroke="currentColor" strokeWidth="1"/>
  
  <!-- Decorative dots on hat -->
  <circle cx="13" cy="10" r="0.5" fill="white" opacity="0.7"/>
  <circle cx="16" cy="9" r="0.5" fill="white" opacity="0.7"/>
  <circle cx="19" cy="10" r="0.5" fill="white" opacity="0.7"/>
</svg>